<?xml version="1.0" encoding="utf-8"?>
<!-- Generator: Adobe Illustrator 26.3.1, SVG Export Plug-In . SVG Version: 6.00 Build 0)  -->
<svg version="1.1" id="Capa_1" xmlns="http://www.w3.org/2000/svg" xmlns:xlink="http://www.w3.org/1999/xlink" x="0px" y="0px"
	 viewBox="0 0 512 512" style="enable-background:new 0 0 512 512;" xml:space="preserve">
<style type="text/css">
	.st0{fill:#FFFFFF;}
</style>
<g>
	<path class="st0" d="M181,299.3c0-22.3,0-143.3,0-150h-30v15c0,8.3-6.7,15-15,15h-15v30h15c5.3,0,10.3-0.9,15-2.6v92.6H181z"/>
	<path class="st0" d="M196,194.4v60c0,24.8,20.2,45,45,45s45-20.2,45-45v-60c0-24.8-20.2-45-45-45S196,169.5,196,194.4L196,194.4z
		 M226,194.4c0-8.3,6.7-15,15-15c8.3,0,15,6.7,15,15v60c0,8.3-6.7,15-15,15c-8.3,0-15-6.7-15-15L226,194.4z"/>
	<path class="st0" d="M391,254.3v-60c0-24.8-20.2-45-45-45s-45,20.2-45,45v60c0,24.8,20.2,45,45,45S391,279.2,391,254.3L391,254.3z
		 M331,254.3v-60c0-8.3,6.7-15,15-15s15,6.7,15,15v60c0,8.3-6.7,15-15,15S331,262.6,331,254.3L331,254.3z"/>
	<path class="st0" d="M512,389.3H393.7l-5-30h-8c5.4-3.8,10.5-7.9,15.5-12.3l0,0c9.3,9.5,21.9,14.6,35.5,14.6c2.6,0,5.3-0.2,8-0.6
		c19.6-2.9,36.7-15.6,46.8-35c2.5-4.5,4.4-9,6.2-13.3c0.8-1.9,1.6-3.8,2.4-5.5l6.5-14.3l-28.6-11.3l-0.7-0.2
		c-10.4-3.5-20.6-4.3-30.3-3c1-2.9,1.9-5.8,2.7-8.7l0.2,0c3.7,0.9,7.4,1.3,11,1.3c11.8,0,23.4-4.4,33.1-12.6
		c15.2-13,22.9-33,21-54.9l-5.1-35.8l-30.2,5.7l-0.7,0.1c-10.1,2.4-19.4,7.2-27.3,13.8c-0.7-3-1.5-6-2.3-9l0.5-0.2
		c16.4-6.4,28.2-19.8,32.2-37l0-0.2c4-18-0.8-38-13-53.5c-5-6.6-9.4-11.8-13.8-16.3l-10.2-10.4L418.4,81l-0.5,0.5
		c-7.2,7.3-12.4,16.3-15.6,25.9c-2.2-2.2-4.4-4.3-6.7-6.3l0.2-0.2c10.7-14.3,13.5-32,7.7-48.4c-5.6-16.9-20.2-31.4-39.2-38.7
		l-0.2-0.1c-4.7-1.8-9.4-3.2-13.9-4.6c-1.8-0.6-3.6-1.1-5.5-1.7l-15-4.7l-7.9,29.6l-0.2,0.7c-2.3,10.6-1.9,20.9,0.5,30.3
		c-1-0.2-2.1-0.5-3.1-0.7l-14.7-3l-6,29.4l14.7,3c36,7.3,108,45.4,108,132.3c0,73.8-60,134.8-135,134.8h-60
		c-76.2,0-135-62.2-135-134.8c0-91.1,77.9-126.2,108-132.3l14.7-3l-6-29.4l-14.7,3c-1,0.2-2.1,0.4-3.1,0.7
		c2.4-9.5,2.8-19.7,0.5-30.3l-8.1-30.3l-15,4.7c-1.8,0.6-3.6,1.1-5.5,1.7c-4.5,1.4-9.2,2.8-13.9,4.6l-0.2,0.1
		c-19,7.3-33.6,21.8-39.2,38.7c-5.8,16.5-3,34.1,7.6,48.4l0.2,0.3c-2.3,2-4.5,4.1-6.7,6.3c-3.2-9.7-8.4-18.6-15.6-25.9L71.9,60.8
		L61.7,71.2c-4.5,4.5-8.9,9.7-13.8,16.3c-12.2,15.5-17.1,35.5-13,53.5l0,0.2c4.1,17.1,15.8,30.6,32.2,36.9l0.6,0.2
		c-0.9,3-1.6,6-2.3,9c-7.9-6.6-17.2-11.4-27.3-13.8l-30.9-5.9l-5,35L2,203.5c-1.9,21.9,5.7,41.9,21,54.9C32.7,266.6,44.3,271,56,271
		c3.7,0,7.4-0.4,11-1.3l0.2,0c0.8,2.9,1.7,5.8,2.7,8.7c-9.7-1.3-19.9-0.5-30.3,3l-29.2,11.5l6.5,14.3c0.8,1.8,1.6,3.6,2.4,5.5
		c1.8,4.3,3.7,8.8,6.2,13.3c10.1,19.4,27.2,32.1,46.8,35c2.7,0.4,5.4,0.6,8,0.6c13.6,0,26.2-5.1,35.5-14.6l0,0
		c4.9,4.4,10.1,8.6,15.5,12.3h-8l-5,30H0l40,60l-40,60h128.7c1.8-10.7,3.4-20.6,5-30h244.6c1.5,8.8,3,18.4,5,30H512l-40-60
		L512,389.3z M350.7,40.7c1,0.3,1.9,0.7,2.9,1c10.5,4.1,18.7,11.8,21.4,20.1l0.1,0.4c2.5,7,1.3,14.3-3.5,20.7l-0.2,0.3
		c-1.1-0.7-2.2-1.3-3.3-1.9C356.8,72.5,347.7,57.4,350.7,40.7z M461.4,309.4c-0.4,0.8-0.8,1.5-1.2,2.2l-0.3,0.5
		c-5.6,10.8-14.6,17.9-24.6,19.3c-7,1-13.5-1-17.8-5.5l-0.9-0.9c0.7-0.9,1.5-1.9,2.2-2.8C428.5,312.1,445,304.4,461.4,309.4
		L461.4,309.4z M479.7,203.1l0.5,3.4c0.9,11.9-2.9,22.5-10.6,29.1c-5.4,4.6-11.9,6.4-17.9,4.9l-1.5-0.3c0-0.2,0-0.5,0.1-0.7
		C451.9,225.2,461.7,208.1,479.7,203.1z M438.5,103.3c0.6,0.8,1.2,1.6,1.8,2.4l0.2,0.2c7.9,9.9,9,21.1,7.4,28.3
		c-1.8,7.6-6.6,13.1-14,15.9l-0.5,0.2c-0.5-1-1-2-1.5-3C426.6,134.2,427.2,115.8,438.5,103.3L438.5,103.3z M140.3,82.9
		c-4.7-6.3-5.9-13.6-3.4-20.6l0.1-0.4c2.7-8.3,10.9-16.1,21.4-20.1c0.9-0.3,1.9-0.7,2.9-1c3,16.7-6.1,31.8-17.5,40.6
		c-1.1,0.6-2.2,1.3-3.3,1.9L140.3,82.9z M77.9,150.2c-7.2-2.8-12-8.3-13.9-15.9c-1.6-7.2-0.5-18.4,7.4-28.3l0.2-0.2
		c0.6-0.8,1.2-1.6,1.8-2.4c11.4,12.5,11.9,30.8,6.6,44.1c-0.5,1-1,2-1.5,3L77.9,150.2z M60.3,240.5c-6,1.5-12.5-0.3-17.9-4.9
		c-7.7-6.6-11.5-17.1-10.6-29.1l0.5-3.4c18,5,27.8,22.1,29.4,36.4c0,0.2,0,0.5,0.1,0.7L60.3,240.5z M76.7,331.4
		c-10-1.5-19-8.5-24.6-19.3l-0.3-0.5c-0.4-0.7-0.8-1.4-1.2-2.2c16.4-5,32.8,2.7,42.6,12.9c0.7,1,1.4,1.9,2.2,2.8l-0.9,0.9
		C90.2,330.4,83.7,332.4,76.7,331.4L76.7,331.4z M373.3,449.3H138.7l10-60h214.6L373.3,449.3z M56,479.3l20-30l-20-30h57.3l-10,60
		H56z M456,479.3h-47.3l-10-60H456l-20,30L456,479.3z"/>
</g>
</svg>
