<?xml version="1.0" encoding="utf-8"?>
<!-- Generator: Adobe Illustrator 26.3.1, SVG Export Plug-In . SVG Version: 6.00 Build 0)  -->
<svg version="1.1" id="svg4587" xmlns:svg="http://www.w3.org/2000/svg"
	 xmlns="http://www.w3.org/2000/svg" xmlns:xlink="http://www.w3.org/1999/xlink" x="0px" y="0px" viewBox="0 0 682.7 682.7"
	 style="enable-background:new 0 0 682.7 682.7;" xml:space="preserve">
<style type="text/css">
	.st0{fill:none;stroke:#FFFFFF;stroke-width:20;stroke-linecap:round;stroke-linejoin:round;stroke-miterlimit:13.3333;}
	.st1{clip-path:url(#SVGID_00000011717260045245365410000017987252874504852634_);}
</style>
<g id="g4593" transform="matrix(1.3333333,0,0,-1.3333333,0,682.66667)">
	<g id="g4595" transform="translate(203.5596,430.835)">
		<path id="path4597" class="st0" d="M0,0h212.4"/>
	</g>
	<g id="g4599">
		<g>
			<defs>
				<rect id="SVGID_1_" x="-85.3" y="-85.3" width="682.7" height="682.7"/>
			</defs>
			<clipPath id="SVGID_00000026865814183576428310000013086808122740572590_">
				<use xlink:href="#SVGID_1_"  style="overflow:visible;"/>
			</clipPath>
			<g id="g4601" style="clip-path:url(#SVGID_00000026865814183576428310000013086808122740572590_);">
				<g id="g4607" transform="translate(83.9189,140.3604)">
					<path id="path4609" class="st0" d="M0,0h-35.4C-51.2,0-64,12.8-64,28.6v233.3c0,15.8,12.8,28.6,28.6,28.6h7.7"/>
				</g>
				<g id="g4611" transform="translate(482.3857,331)">
					<path id="path4613" class="st0" d="M0,0v-162.1c0-15.8-12.8-28.6-28.6-28.6l-277.9,0"/>
				</g>
				<g id="g4615" transform="translate(186.168,394.2812)">
					<path id="path4617" class="st0" d="M0,0h237.4"/>
				</g>
				<g id="g4619" transform="translate(19.9434,394.2812)">
					<path id="path4621" class="st0" d="M0,0h53.7"/>
				</g>
				<g id="g4623" transform="translate(154.1045,430.835)">
					<path id="path4625" class="st0" d="M0,0c0-13.4-10.8-24.2-24.2-24.2S-48.4-13.4-48.4,0s10.8,24.2,24.2,24.2S0,13.4,0,0z"/>
				</g>
				<g id="g4627" transform="translate(203.5586,418.5791)">
					<path id="path4629" class="st0" d="M0,0v24.5l-22.3,4.7c-0.8,2.5-1.9,5-3.1,7.4l12.5,19.1L-30.2,73l-19.1-12.5
						c-2.4,1.2-4.8,2.2-7.4,3.1l-4.7,22.3h-24.5l-4.7-22.3c-2.5-0.8-5-1.9-7.4-3.1L-117.1,73l-17.3-17.3l12.5-19.1
						c-1.2-2.4-2.2-4.8-3.1-7.4l-22.3-4.7V0l22.3-4.7c0.8-2.5,1.9-5,3.1-7.4l-12.5-19.1l17.3-17.3L-98-36c2.4-1.2,4.8-2.2,7.4-3.1
						l4.7-22.3h24.5l4.7,22.3c2.5,0.8,5,1.9,7.4,3.1l19.1-12.5l17.3,17.3l-12.5,19.1c1.2,2.4,2.2,4.8,3.1,7.4L0,0z"/>
				</g>
				<path id="path4631" class="st0" d="M154.1,288.8H77.7v29h76.4V288.8z"/>
				<g id="g4633" transform="translate(261.1641,324.1602)">
					<path id="path4635" class="st0" d="M0,0l23.3,23.3c2.7,2.7,7.1,2.7,9.9,0L69.5-13c2.7-2.7,7.1-2.7,9.9,0L181.4,89.1H169
						c-4,0-7.6,1.6-10.2,4.2s-4.2,6.3-4.2,10.3c0,8,6.5,14.5,14.5,14.5h47.6c7.9,0,14.3-6.4,14.3-14.3V56.2c0-4-1.6-7.6-4.2-10.3
						c-2.6-2.6-6.3-4.2-10.3-4.2c-8,0-14.5,6.5-14.5,14.5v12.4L79.3-54c-2.7-2.7-7.1-2.7-9.8,0L33.2-17.7c-2.7,2.7-7.1,2.7-9.9,0
						l-61.5-61.6c-5.7-5.7-14.8-5.7-20.5,0C-61.6-76.4-63-72.7-63-69c0,3.7,1.4,7.4,4.2,10.3L-25-25"/>
				</g>
				<g id="g4637" transform="translate(294.5801,190.4824)">
					<path id="path4639" class="st0" d="M0,0h142.1"/>
				</g>
				<g id="g4641" transform="translate(352.4521,223.3867)">
					<path id="path4643" class="st0" d="M0,0h84.3"/>
				</g>
				<g id="g4645" transform="translate(77.71,260.3105)">
					<path id="path4647" class="st0" d="M0,0h52.2"/>
				</g>
				<g id="g4649" transform="translate(251.1641,7.5)">
					<path id="path4651" class="st0" d="M0,0L0,0c-7,0-12.7,5.7-12.7,12.7v120.2h25.4V12.7C12.7,5.7,7,0,0,0z"/>
				</g>
				<g id="g4653" transform="translate(200.7314,140.3594)">
					<path id="path4655" class="st0" d="M0,0l-31.5-123.3c-1.4-5.6-6.5-9.5-12.3-9.5h-2.6c-8.3,0-14.3,7.8-12.3,15.8l22.1,86.3"/>
				</g>
				<g id="g4657" transform="translate(345.4102,7.5)">
					<path id="path4659" class="st0" d="M0,0h2.6c8.3,0,14.3,7.8,12.3,15.8l-29.9,117h-28.8L-12.3,9.5C-10.9,3.9-5.8,0,0,0z"/>
				</g>
				<g id="g4661" transform="translate(175.8711,140.3604)">
					<path id="path4663" class="st0" d="M0,0c0-25.4-20.6-46-46-46c-3.6,0-7,0.4-10.4,1.2C-76.7-40.1-92-21.8-92,0
						s15.2,40.1,35.6,44.8C-53,45.6-49.5,46-46,46C-20.6,46,0,25.4,0,0z"/>
				</g>
				<g id="g4665" transform="translate(129.8945,150.4736)">
					<path id="path4667" class="st0" d="M0,0v-20.2"/>
				</g>
			</g>
			<use xlink:href="#SVGID_1_"  style="overflow:visible;fill:none;stroke:#FFFFFF;stroke-miterlimit:10;"/>
		</g>
	</g>
</g>
</svg>
