<?xml version="1.0" encoding="utf-8"?>
<!-- Generator: Adobe Illustrator 26.3.1, SVG Export Plug-In . SVG Version: 6.00 Build 0)  -->
<svg version="1.1" id="svg2247" xmlns:svg="http://www.w3.org/2000/svg"
	 xmlns="http://www.w3.org/2000/svg" xmlns:xlink="http://www.w3.org/1999/xlink" x="0px" y="0px" viewBox="0 0 682.7 682.7"
	 style="enable-background:new 0 0 682.7 682.7;" xml:space="preserve">
<style type="text/css">
	.st0{stroke:#FFFFFF;stroke-width:14;stroke-linecap:round;stroke-linejoin:round;stroke-miterlimit:17.7777;}
	.st1{fill:none;stroke:#FFFFFF;stroke-width:14;stroke-miterlimit:10;}
</style>
<g id="g2255" transform="translate(66.7734,322.9736)">
	<path id="path2257" class="st0" d="M42.3-70.9h256"/>
</g>
<g id="g2259" transform="translate(66.7734,270.2778)">
	<path id="path2261" class="st0" d="M42.3,52h256"/>
</g>
<g id="g2263" transform="translate(66.7734,217.5825)">
	<path id="path2265" class="st0" d="M42.3,175h256"/>
</g>
<g id="g2267" transform="translate(66.7734,164.8867)">
	<path id="path2269" class="st0" d="M42.3,297.9h256"/>
</g>
<g id="g2271" transform="translate(66.7734,87.6597)">
	<path id="path2273" class="st0" d="M42.3,478.1h128.3"/>
</g>
<g>
	<g id="g2277">
		<g id="g2283" transform="translate(187.4014,409.8135)">
			<path id="path2285" class="st1" d="M61.6-273.7H44.3c-6.8,0-12.4-5.6-12.4-12.4v-32.4c0-6.8,5.6-12.4,12.4-12.4h205.3
				c6.8,0,12.4,5.6,12.4,12.4v32.4c0,6.8-5.6,12.4-12.4,12.4H108.4 M346.8-227.3v-133.1c0-21.9-17.7-39.5-39.5-39.5H-32
				c-10.5,0-20.5,4.1-27.9,11.6l-103.1,103.1c-7.5,7.5-11.6,17.5-11.6,27.9v480.7c0,21.9,17.7,39.5,39.5,39.5h442.4
				c21.9,0,39.5-17.7,39.5-39.5v-13.5"/>
		</g>
		<g id="g2287" transform="translate(356.5049,147.0181)">
			<path id="path2289" class="st1" d="M118,339.5v101.1c0,8.8,9.6,14.1,17.1,9.6l36.7-22.7c1.9-1.1,3.9-1.6,5.9-1.6s4.1,0.5,5.9,1.6
				l36.7,22.5c7.5,4.7,17.1-0.8,17.1-9.6V339.5"/>
		</g>
		<g id="g2291" transform="translate(401.251,180.1875)">
			<path id="path2293" class="st1" d="M132.9,262.1c-40.8,0-73.9-33.1-73.9-73.9s33.1-73.9,73.9-73.9s73.9,33.1,73.9,73.9
				S173.7,262.1,132.9,262.1z M261.6,205.2c-6.9-10.1-6.9-23.6,0-33.7c11.1-16.3,3.9-38.5-14.7-45.1c-11.6-4.1-19.5-14.9-19.9-27.3
				c-0.5-19.6-19.6-33.3-38.4-27.9c-11.9,3.5-24.5-0.7-32.1-10.4c-6-7.7-14.8-11.6-23.7-11.6c-8.9,0-17.7,3.9-23.7,11.6
				c-7.6,9.7-20.3,13.9-32.1,10.4c-18.8-5.5-37.7,8.3-38.4,27.9c-0.4,12.3-8.3,23.2-19.9,27.3C0.2,133.1-7.1,155.3,4,171.5
				c6.9,10.1,6.9,23.6,0,33.7c-11.1,16.3-3.9,38.5,14.7,45.1c11.6,4.1,19.5,14.9,19.9,27.3l0,0c0.5,18.3,17.1,31.5,34.5,28.7
				c1.3-0.1,2.5-0.5,3.9-0.8c11.9-3.5,24.5,0.7,32.1,10.4c12,15.5,35.5,15.5,47.5,0c7.6-9.7,20.4-13.9,32.3-10.4
				c1.3,0.4,2.5,0.7,3.9,0.8c17.5,2.8,34-10.4,34.5-28.7l0,0c0.4-12.3,8.3-23.2,19.9-27.3C265.4,243.7,272.6,221.5,261.6,205.2z"/>
		</g>
		<g id="g2295" transform="translate(401.251,290.896)">
			<path id="path2297" class="st1" d="M132.9,3.8C92.1,3.8,59,36.9,59,77.7s33.1,73.9,73.9,73.9s73.9-33.1,73.9-73.9
				S173.7,3.8,132.9,3.8z"/>
		</g>
		<g id="g2299" transform="translate(104.9434,501.8198)">
			<path id="path2301" class="st1" d="M34.1-488.3v98.3c0,13.5-10.9,24.4-24.5,24.4h-98.1"/>
		</g>
	</g>
</g>
</svg>
