<?xml version="1.0" encoding="utf-8"?>
<!-- Generator: Adobe Illustrator 26.3.1, SVG Export Plug-In . SVG Version: 6.00 Build 0)  -->
<svg version="1.1" id="Capa_1" xmlns="http://www.w3.org/2000/svg" xmlns:xlink="http://www.w3.org/1999/xlink" x="0px" y="0px"
	 viewBox="0 0 512 512" style="enable-background:new 0 0 512 512;" xml:space="preserve">
<style type="text/css">
	.st0{fill:#FFFFFF;}
</style>
<g>
	<path class="st0" d="M489.4,337.4H326V290c0-4.9,1.7-9.7,4.9-13.4c9-10.6,25.2-32.2,32.6-57.8c1.1-4-1.2-8.2-5.1-9.3
		c-4-1.1-8.1,1.2-9.3,5.1c-6.6,22.9-21.4,42.5-29.6,52.2c-5.5,6.4-8.5,14.7-8.5,23.2v47.4H194.7v-47.1c0-11.7-4.2-23-11.7-32
		c-26.2-31.2-26.6-78.3-26.6-78.8v-33.4c4.1,2.2,8.7,3.5,13.7,3.5c6.4,0,12.3-2.1,17.1-5.6c4.8,9,14.4,15.2,25.3,15.2
		c5.8,0,11.1-1.7,15.6-4.7c4.2,10.7,14.6,18.3,26.8,18.3c10,0,18.7-5.1,23.9-12.8c1.5,1.3,3.1,2.4,4.9,3.3
		c-15,9.8-32.4,26.1-43.1,52.4c-1.6,3.8,0.3,8.2,4.1,9.8c0.9,0.4,1.9,0.6,2.8,0.6c3,0,5.8-1.8,7-4.7c18.6-45.4,61.2-56.8,61.6-56.9
		c2.7-0.7,4.7-2.7,5.4-5.4l3.6-13.6c0-0.1,0-0.2,0.1-0.3l2.2-8.6c0-0.1,0.1-0.2,0.1-0.3l0.1-0.4c0.4-2,0.1-4-1-5.7
		c-1.1-1.7-2.8-2.9-4.7-3.3l-48.5-10.4c-10.5-2.2-18.2-12.1-18.2-23.4c0-2.3,1.7-4.1,3.7-4.1h70.7c8.3,0,14.6,2.5,19,7.7
		c14.5,16.8,10.3,59,5.8,89.3c-0.6,4.1,2.2,7.9,6.3,8.5c4.1,0.6,7.9-2.2,8.5-6.3c2.7-18.6,5-39.3,4.1-57.9h4.6
		c11.3,26.8,37.5,44.4,66.9,44.4c28.9,0,55.1-17.1,66.6-43.7c2.2-4.8-1.6-10.7-6.9-10.5H449l-11.1-18.5L449,83.7h55.5
		c5.2,0.2,9.1-5.8,6.9-10.5c-11.6-26.5-37.7-43.7-66.6-43.7c-29.4,0-55.7,17.7-67,44.5H326V28.7C326,12.9,313.1,0,297.3,0
		c-11.4,0-21.3,6.7-25.9,16.4c-4.7-3.3-10.4-5.2-16.5-5.2c-11,0-20.6,6.2-25.4,15.3c-4.8-3.5-10.6-5.6-17-5.6
		c-11.8,0-22,7.2-26.4,17.4c-4.6-3.1-10.1-4.9-16-4.9c-15.8,0-28.7,12.9-28.7,28.7v11.8h-7.1c-6.7-15.8-19-29-34.4-36.7
		c-3.7-1.9-8.2-0.4-10.1,3.3c-1.9,3.7-0.4,8.2,3.3,10.1c13.5,6.8,24,18.9,28.8,33.2c1,3.1,3.9,5.1,7.1,5.1h12.3v26.4H129
		c-3.2,0-6.1,2.1-7.1,5.1c-7.9,23.5-29.8,39.3-54.6,39.3c-18.8,0-36.2-9.2-46.9-24.1h46.9c2.6,0,5.1-1.4,6.4-3.6l15.6-26
		c1.4-2.4,1.4-5.3,0-7.7l-15.6-26c-1.4-2.3-3.8-3.7-6.4-3.7H20.4c10.7-15,28-24.1,46.9-24.1c4.2,0,7.5-3.4,7.5-7.5s-3.4-7.5-7.5-7.5
		c-28.9,0-55.1,17.1-66.6,43.7c-2.2,4.8,1.6,10.7,6.9,10.5H63l11.1,18.5L63,120.6H7.5c-5.2-0.2-9.1,5.8-6.9,10.5
		c11.6,26.5,37.7,43.7,66.6,43.7c29.4,0,55.7-17.6,66.9-44.4h7.1v49.1c0,2.1,0.3,52.9,30.1,88.4c5.3,6.3,8.2,14.2,8.2,22.4v47.1H120
		c-4.2,0-7.5,3.4-7.5,7.5s3.4,7.5,7.5,7.5h369.5c4.1,0,7.5,3.4,7.5,7.5v129.5c0,4.1-3.4,7.5-7.5,7.5H22.6c-4.1,0-7.5-3.4-7.5-7.5
		V359.9c0-4.1,3.4-7.5,7.5-7.5h67.3c4.2,0,7.5-3.4,7.5-7.5s-3.4-7.5-7.5-7.5H22.6C10.1,337.4,0,347.5,0,359.9v129.5
		C0,501.9,10.1,512,22.6,512h466.9c12.4,0,22.5-10.1,22.5-22.5V359.9C512,347.5,501.9,337.4,489.4,337.4L489.4,337.4z M383,88.9
		c3.2,0,6.1-2.1,7.1-5.1c7.9-23.5,29.8-39.3,54.6-39.3c18.8,0,36.2,9.2,46.9,24.1h-46.9c-2.6,0-5.1,1.4-6.4,3.7l-15.6,26
		c-1.4,2.4-1.4,5.3,0,7.7l15.6,26c1.4,2.3,3.8,3.6,6.4,3.6h46.9c-10.7,14.9-28,24.1-46.9,24.1c-24.8,0-46.8-15.8-54.6-39.3
		c-1-3.1-3.9-5.1-7.1-5.1h-11.3c-1.8-10.3-4.9-19.4-10.2-26.4L383,88.9L383,88.9z M283.6,134.1l27.2,5.8
		c-0.9,6.7-6.6,11.8-13.5,11.8c-7.5,0-13.7-6.1-13.7-13.7V134.1z M268.5,130.9v13.2c0,7.5-6.1,13.7-13.7,13.7
		c-7.5,0-13.7-6.1-13.7-13.7v-41.2C244.6,116.4,255,127.4,268.5,130.9z M297.3,15c7.5,0,13.7,6.1,13.7,13.7V74h-27.4V28.7
		C283.6,21.2,289.7,15,297.3,15z M254.9,26.2c7.5,0,13.7,6.1,13.7,13.7V74h-9.8c-8,0-14.9,5.2-17.5,12.5V39.8
		C241.2,32.3,247.3,26.2,254.9,26.2L254.9,26.2z M198.8,49.6c0-7.5,6.1-13.7,13.7-13.7c7.5,0,13.7,6.1,13.7,13.7v80.9
		c0,7.5-6.1,13.7-13.7,13.7c-7.5,0-13.7-6.1-13.7-13.7V49.6z M156.4,62.1c0-7.5,6.1-13.7,13.7-13.7c7.5,0,13.7,6.1,13.7,13.7v58.7
		c0,7.5-6.1,13.7-13.7,13.7c-7.5,0-13.7-6.1-13.7-13.7V62.1z"/>
	<path class="st0" d="M122.8,456l3.5-9.2h24.2l3.5,9.2c1.1,3,4,4.9,7,4.9c5.1,0.1,8.9-5.4,7-10.2l-21.3-56.5c0-0.1-0.1-0.1-0.1-0.2
		c-1.4-3.3-4.6-5.5-8.1-5.5c0,0,0,0,0,0c-3.6,0-6.8,2.2-8.1,5.5c0,0.1,0,0.1-0.1,0.2l-21.5,56.5c-1.5,3.9,0.5,8.2,4.3,9.7
		C117,461.8,121.3,459.9,122.8,456L122.8,456z M138.4,414.9l6.4,16.8H132L138.4,414.9z"/>
	<path class="st0" d="M65.3,388.5c-4.2,0-7.5,3.4-7.5,7.5v57.2c0,3.7,2.6,6.8,6.2,7.4c0.5,0.1,14.8,0.1,21.4,0.1
		c4.1,0,7.5-3.4,7.5-7.6c0-4.1-3.4-7.5-7.5-7.5c0,0,0,0,0,0c-3.8,0-8.6,0-12.5,0v-49.7C72.8,391.9,69.4,388.5,65.3,388.5L65.3,388.5
		z"/>
	<path class="st0" d="M209.8,388.5h-16.6c-4.1,0-7.5,3.4-7.5,7.5v26.4v0v30.9c-0.1,4,3.5,7.6,7.5,7.5c0,0,15.3-0.1,19.5-0.1
		c12.6,0,22.9-10.3,22.9-22.9c0-7.1-3.2-13.4-8.3-17.7c2-3.2,3.2-6.9,3.2-11C230.5,397.8,221.2,388.5,209.8,388.5L209.8,388.5z
		 M200.7,403.6h9.1c3.1,0,5.7,2.5,5.7,5.7s-2.5,5.7-5.7,5.7c-1.2,0-9.1,0-9.1,0V403.6z M212.7,445.7c-2.2,0-7.5,0-12,0v-15.8
		c1,0,12,0,12,0c4.4,0,7.9,3.5,7.9,7.9C220.6,442.2,217,445.7,212.7,445.7z"/>
	<path class="st0" d="M343.3,388.5c-4.1,0-7.5,3.4-7.5,7.5v39.4c0,8.8,4.2,15.9,12.5,21.2c4.4,2.8,9.3,4.2,14.6,4.2h0
		c4.6,0,8.9-1,12.8-3c12.3-6.2,14.9-15.6,14.9-22.4v-39.4c0-4.2-3.4-7.5-7.5-7.5s-7.5,3.4-7.5,7.5v39.4c0,2.6-0.8,6.1-6.7,9
		c-1.8,0.9-3.8,1.4-6,1.4c0,0,0,0,0,0c-2.5,0-4.6-0.6-6.5-1.8c-4.6-2.9-5.5-5.5-5.5-8.5v-39.4C350.8,391.9,347.4,388.5,343.3,388.5
		L343.3,388.5z"/>
	<path class="st0" d="M454.2,410.9c0-12.3-10.4-22.4-23.2-22.4h-15.2c0,0,0,0,0,0s0,0,0,0c-4.1,0-7.5,3.4-7.5,7.5v57.3
		c0,4.2,3.4,7.5,7.5,7.5s7.5-3.4,7.5-7.5v-15.3l17.8,20.2c2.8,3.1,7.5,3.4,10.6,0.7c3.1-2.7,3.4-7.5,0.7-10.6l-14.2-16.1
		C447.5,429.3,454.2,420.9,454.2,410.9L454.2,410.9z M431,418.3c-1.8,0-7.6,0-7.6,0l0-14.8h7.7c4.5,0,8.2,3.4,8.2,7.4
		C439.2,414.9,435.4,418.3,431,418.3L431,418.3z"/>
	<path class="st0" d="M323.2,424.7c0-19.9-16.2-36.1-36.1-36.1s-36.1,16.2-36.1,36.1s16.2,36.1,36.1,36.1S323.2,444.6,323.2,424.7z
		 M265.9,424.7c0-11.6,9.5-21.1,21.1-21.1s21.1,9.5,21.1,21.1c0,11.6-9.5,21.1-21.1,21.1S265.9,436.3,265.9,424.7z"/>
</g>
</svg>
