<?xml version="1.0" encoding="utf-8"?>
<!-- Generator: Adobe Illustrator 26.3.1, SVG Export Plug-In . SVG Version: 6.00 Build 0)  -->
<svg version="1.1" id="Layer_1" xmlns="http://www.w3.org/2000/svg" xmlns:xlink="http://www.w3.org/1999/xlink" x="0px" y="0px"
	 viewBox="0 0 512 512" style="enable-background:new 0 0 512 512;" xml:space="preserve">
<style type="text/css">
	.st0{fill:#FFFFFF;}
</style>
<path class="st0" d="M508,267.4v-238c0-14-11.4-25.3-25.3-25.3h-285c-14,0-25.3,11.4-25.3,25.3v134.3l-22.6,22.6
	c-9.9,9.9-21.5,14.7-35.5,14.7H57.1C27.8,200.9,4,224.7,4,254v72.9c0,15,12.2,27.2,27.2,27.2c4.5,0,8.7-1.1,12.5-3L31.1,500.4
	c-0.2,2,0.5,3.9,1.8,5.3c1.3,1.4,3.2,2.3,5.2,2.3h41.7c3.6,0,6.6-2.7,7-6.2l10.7-96.7l10.7,96.7c0.4,3.5,3.4,6.2,7,6.2h41.7
	c2,0,3.8-0.8,5.2-2.3c1.3-1.4,2-3.4,1.8-5.3l-13.3-158.3v-66.9c0-8.5,2.9-15.6,9-21.7l13-13v26.8c0,14,11.4,25.3,25.3,25.3h285
	C496.6,292.7,508,281.3,508,267.4L508,267.4z M121.3,494l-12.5-112.9c-0.6-5.8-5.6-10.2-11.4-10.2s-10.8,4.4-11.4,10.2L73.5,494
	H45.7l12.7-151c0-0.2,0-0.4,0-0.6v-8.5h78v8.5c0,0.2,0,0.4,0,0.6l12.7,151H121.3z M149.5,243.6c-8.7,8.7-13.1,19.3-13.1,31.6v44.7
	h-78v-62c0-3.9-3.1-7-7-7s-7,3.1-7,7v69c0,7.3-5.9,13.2-13.2,13.2S18,334.1,18,326.9V254c0-21.6,17.6-39.1,39.1-39.1h57.2
	c17.6,0,32.9-6.3,45.4-18.8l49.3-49.3c5.2-5.2,13.5-5.2,18.7,0c5.2,5.2,5.2,13.5,0,18.7L149.5,243.6L149.5,243.6z M248.2,62.7
	l-3.1-4.6l6.8-6.8l4.6,3.1c1.9,1.3,4.4,1.5,6.6,0.7l15.1-6.3c2.2-0.9,3.7-2.8,4.2-5.1l1.1-5.5h9.6l1.1,5.5c0.5,2.3,2,4.2,4.2,5.1
	l15.1,6.3c2.2,0.9,4.6,0.7,6.6-0.7l4.6-3.1l6.8,6.8l-3.1,4.6c-1.3,1.9-1.5,4.4-0.7,6.6l6.3,15.1c0.9,2.2,2.8,3.7,5.1,4.2l5.5,1.1
	v9.6l-5.5,1.1c-2.3,0.5-4.2,2-5.1,4.2l-6.3,15.1c-0.9,2.2-0.7,4.6,0.7,6.6l3.1,4.6l-6.8,6.8l-4.6-3.1c-1.9-1.3-4.4-1.5-6.6-0.7
	l-15.1,6.3c-2.2,0.9-3.7,2.8-4.2,5.1l-1.1,5.5h-9.6l-1.1-5.5c-0.5-2.3-2-4.2-4.2-5.1l-15.1-6.3c-2.2-0.9-4.6-0.7-6.6,0.7l-4.6,3.1
	l-6.8-6.8l3.1-4.6c1.3-1.9,1.6-4.4,0.7-6.6l-6.3-15.1c-0.9-2.2-2.8-3.7-5.1-4.2l-5.5-1.1v-9.6l5.5-1.1c2.3-0.5,4.2-2,5.1-4.2
	l6.3-15.1C249.7,67.1,249.5,64.6,248.2,62.7L248.2,62.7z M186.4,267.4v-40.8l51.2-51.2c6.8-6.8,9.2-16.2,7.4-24.9
	c3.4,2.8,8.3,3.1,12,0.6l4.3-2.9l8.2,3.4l1,5c0.9,4.7,5,8.1,9.8,8.1h16.1c4.8,0,8.9-3.4,9.8-8.1l1-5l8.2-3.4l4.3,2.9
	c4,2.7,9.3,2.1,12.6-1.2l11.4-11.4c3.4-3.4,3.9-8.7,1.2-12.6l-2.9-4.3l3.4-8.2l5-1c4.7-0.9,8.1-5,8.1-9.8V86.4
	c0-4.8-3.4-8.9-8.1-9.8l-5-1l-3.4-8.2l2.9-4.3c2.7-4,2.1-9.3-1.2-12.6l-11.4-11.4c-3.4-3.4-8.7-3.9-12.6-1.2l-4.3,2.9l-8.2-3.4l-1-5
	c-0.9-4.7-5-8.1-9.8-8.1h-16.1c-4.8,0-8.9,3.4-9.8,8.1l-1,5l-8.2,3.4l-4.3-2.9c-4-2.7-9.3-2.1-12.6,1.2l-11.4,11.4
	c-3.4,3.4-3.9,8.7-1.2,12.6l2.9,4.3l-3.4,8.2l-5,1c-4.7,0.9-8.1,5-8.1,9.8v16.1c0,4.8,3.4,8.9,8.1,9.8l5,1l3.4,8.2l-2.9,4.3
	c-1.2,1.7-1.7,3.7-1.7,5.7c-10.1-4.8-22.5-3-30.9,5.4l-12.7,12.7V29.3c0-6.2,5.1-11.3,11.3-11.3h285c6.2,0,11.3,5.1,11.3,11.3v238
	c0,6.2-5.1,11.3-11.3,11.3h-285C191.4,278.7,186.4,273.6,186.4,267.4L186.4,267.4z M97.4,200.6c24.9,0,45.1-20.2,45.1-45.1
	s-20.2-45.1-45.1-45.1s-45.1,20.2-45.1,45.1S72.5,200.6,97.4,200.6L97.4,200.6z M97.4,124.3c17.2,0,31.1,14,31.1,31.1
	s-14,31.1-31.1,31.1s-31.1-14-31.1-31.1S80.3,124.3,97.4,124.3z M508,484.6c-1.8-20.1-11-38.6-25.9-52.3
	c-8.2-7.5-17.7-13.2-27.9-16.8c10.5-8.1,17.2-20.7,17.2-34.9c0-24.3-19.8-44.1-44.1-44.1s-44.1,19.8-44.1,44.1
	c0,14.2,6.8,26.9,17.2,34.9c-10.2,3.6-19.8,9.3-27.9,16.8c-8.1,7.4-14.5,16.3-18.9,26.1c-4.5-9.8-10.8-18.6-18.9-26.1
	c-8.2-7.5-17.7-13.2-27.9-16.8c10.5-8.1,17.2-20.7,17.2-34.9c0-24.3-19.8-44.1-44.1-44.1s-44.1,19.8-44.1,44.1
	c0,14.2,6.8,26.9,17.2,34.9c-10.2,3.6-19.8,9.3-27.9,16.8c-14.9,13.7-24.1,32.3-25.9,52.3c0,0.2,0,0.4,0,0.6V501c0,3.9,3.1,7,7,7
	H501c3.9,0,7-3.1,7-7v-15.8C508,485,508,484.8,508,484.6L508,484.6z M427.3,350.5c16.6,0,30.1,13.5,30.1,30.1s-13.5,30.1-30.1,30.1
	s-30.1-13.5-30.1-30.1S410.7,350.5,427.3,350.5z M279.9,350.5c16.6,0,30.1,13.5,30.1,30.1s-13.5,30.1-30.1,30.1
	s-30.1-13.5-30.1-30.1S263.3,350.5,279.9,350.5z M213.1,485.6c3.3-34.6,31.9-60.6,66.7-60.6s63.4,26,66.7,60.6v8.5H213.1V485.6
	L213.1,485.6z M494,494H360.6v-8.5c3.3-34.6,31.9-60.6,66.7-60.6s63.4,26,66.7,60.6V494L494,494z M288.2,133.9
	c21.8,0,39.4-17.7,39.4-39.4S310,55,288.2,55s-39.4,17.7-39.4,39.4S266.5,133.9,288.2,133.9z M288.2,69c14,0,25.4,11.4,25.4,25.4
	s-11.4,25.4-25.4,25.4s-25.4-11.4-25.4-25.4S274.2,69,288.2,69z M454.3,184.3l-5-1l-3.4-8.2l2.9-4.3c2.7-4,2.1-9.3-1.2-12.6
	l-11.4-11.4c-3.4-3.4-8.7-3.9-12.6-1.2l-4.3,2.9L411,145l-1-5c-0.9-4.7-5-8.1-9.8-8.1h-16.1c-4.8,0-8.9,3.4-9.8,8.1l-1,5l-8.2,3.4
	l-4.3-2.9c-4-2.7-9.3-2.1-12.6,1.2l-11.4,11.4c-3.4,3.4-3.9,8.7-1.2,12.6l2.9,4.3l-3.4,8.2l-5,1c-4.7,0.9-8.1,5-8.1,9.8v16.1
	c0,4.8,3.4,8.9,8.1,9.8l5,1l3.4,8.2l-2.9,4.3c-2.7,4-2.1,9.3,1.2,12.6l11.4,11.4c3.4,3.4,8.7,3.9,12.6,1.2l4.3-2.9l8.2,3.4l1,5
	c0.9,4.7,5,8.1,9.8,8.1h16.1c4.8,0,8.9-3.4,9.8-8.1l1-5l8.2-3.4l4.3,2.9c4,2.7,9.3,2.1,12.6-1.2l11.4-11.4c3.4-3.4,3.9-8.7,1.2-12.6
	l-2.9-4.3l3.4-8.2l5-1c4.7-0.9,8.1-5,8.1-9.8v-16.1C462.4,189.4,459,185.3,454.3,184.3L454.3,184.3z M448.4,207l-5.5,1.1
	c-2.3,0.5-4.2,2-5.1,4.2l-6.3,15.1c-0.9,2.2-0.7,4.6,0.7,6.6l3.1,4.6l-6.8,6.8l-4.6-3.1c-1.9-1.3-4.4-1.5-6.6-0.7l-15.1,6.3
	c-2.2,0.9-3.7,2.8-4.2,5.1l-1.1,5.5h-9.6l-1.1-5.5c-0.5-2.3-2-4.2-4.2-5.1l-15.1-6.3c-2.2-0.9-4.6-0.7-6.6,0.7l-4.6,3.1l-6.8-6.8
	l3.1-4.6c1.3-1.9,1.5-4.4,0.7-6.6l-6.3-15.1c-0.9-2.2-2.8-3.7-5.1-4.2l-5.5-1.1v-9.6l5.5-1.1c2.3-0.5,4.2-2,5.1-4.2l6.3-15.1
	c0.9-2.2,0.7-4.6-0.7-6.6l-3.1-4.6l6.8-6.8l4.6,3.1c1.9,1.3,4.4,1.5,6.6,0.7l15.1-6.3c2.2-0.9,3.7-2.8,4.2-5.1l1.1-5.5h9.6l1.1,5.5
	c0.5,2.3,2,4.2,4.2,5.1l15.1,6.3c2.2,0.9,4.6,0.7,6.6-0.7l4.6-3.1l6.8,6.8l-3.1,4.6c-1.3,1.9-1.5,4.4-0.7,6.6l6.3,15.1
	c0.9,2.2,2.8,3.7,5.1,4.2l5.5,1.1L448.4,207L448.4,207z M392.1,162.8c-21.8,0-39.4,17.7-39.4,39.4s17.7,39.4,39.4,39.4
	s39.4-17.7,39.4-39.4S413.9,162.8,392.1,162.8z M392.1,227.7c-14,0-25.4-11.4-25.4-25.4s11.4-25.4,25.4-25.4s25.4,11.4,25.4,25.4
	S406.1,227.7,392.1,227.7L392.1,227.7z M463.3,55.5c0,3.9-3.1,7-7,7h-60.8c-3.9,0-7-3.1-7-7s3.1-7,7-7h60.8
	C460.1,48.5,463.3,51.7,463.3,55.5z M463.3,82.9c0,3.9-3.1,7-7,7h-78c-3.9,0-7-3.1-7-7s3.1-7,7-7h78C460.1,75.9,463.3,79,463.3,82.9
	z M463.3,110.3c0,3.9-3.1,7-7,7h-42.8c-3.9,0-7-3.1-7-7s3.1-7,7-7h42.8C460.1,103.3,463.3,106.4,463.3,110.3z"/>
</svg>
